<svg xmlns="http://www.w3.org/2000/svg" xmlns:xlink="http://www.w3.org/1999/xlink" aria-hidden="true" role="img" id="footer-sample-full" width="1em" height="1em" preserveAspectRatio="xMidYMid meet" viewBox="0 0 48 48" class="iconify iconify--flat-color-icons"><path fill="#E8EAF6" d="M42 39H6V23L24 6l18 17z"></path><g fill="#C5CAE9"><path d="M39 21l-5-5V9h5z"></path><path d="M6 39h36v5H6z"></path></g><path fill="#B71C1C" d="M24 4.3L4 22.9l2 2.2L24 8.4l18 16.7l2-2.2z"></path><path fill="#D84315" d="M18 28h12v16H18z"></path><path fill="#01579B" d="M21 17h6v6h-6z"></path><path fill="#FF8A65" d="M27.5 35.5c-.3 0-.5.2-.5.5v2c0 .3.2.5.5.5s.5-.2.5-.5v-2c0-.3-.2-.5-.5-.5z"></path></svg>
